<svg width="359" height="131" viewBox="0 0 359 131" fill="none" xmlns="http://www.w3.org/2000/svg">
<g filter="url(#filter0_d_358_721)">
<path d="M113.5 5.00024H12.5C6.9 4.60024 4.5 9.16691 4 11.5002V118C4 124.4 9.66667 126.667 12.5 127H114C113.833 125.167 114.378 122 118 122C121.5 122 122 125.5 122 127H344C352.4 127 354.167 121.334 354 118.5V14.5002C354 6.90024 349.333 5.00024 347 5.00024H122C122 6.50024 121.6 10.0002 118 10.0002C114.4 10.0002 113.5 6.66691 113.5 5.00024Z" fill="#FCFCFC"/>
</g>
<defs>
<filter id="filter0_d_358_721" x="0" y="0.975586" width="358.01" height="130.024" filterUnits="userSpaceOnUse" color-interpolation-filters="sRGB">
<feFlood flood-opacity="0" result="BackgroundImageFix"/>
<feColorMatrix in="SourceAlpha" type="matrix" values="0 0 0 0 0 0 0 0 0 0 0 0 0 0 0 0 0 0 127 0" result="hardAlpha"/>
<feOffset/>
<feGaussianBlur stdDeviation="2"/>
<feComposite in2="hardAlpha" operator="out"/>
<feColorMatrix type="matrix" values="0 0 0 0 0 0 0 0 0 0 0 0 0 0 0 0 0 0 0.25 0"/>
<feBlend mode="normal" in2="BackgroundImageFix" result="effect1_dropShadow_358_721"/>
<feBlend mode="normal" in="SourceGraphic" in2="effect1_dropShadow_358_721" result="shape"/>
</filter>
</defs>
</svg>
