<svg width="359" height="713" viewBox="0 0 359 713" fill="none" xmlns="http://www.w3.org/2000/svg">
<g filter="url(#filter0_d_288_908)">
<path d="M12 214V201H33V257.5H12L11 239C16.5 237.5 21.5 234.6 21.5 227C21.5 219.4 15 217.5 12 214Z" fill="white"/>
<path d="M5 605V592H26V648.5H5L4 630C9.5 628.5 14.5 625.6 14.5 618C14.5 610.4 8 608.5 5 605Z" fill="white"/>
<path d="M354 210.885V198H333V254H354L355 235.664C349.5 234.177 344.5 231.303 344.5 223.77C344.5 216.237 351 214.354 354 210.885Z" fill="white"/>
<path d="M353 603.885V591H332V647H353L354 628.664C348.5 627.177 343.5 624.303 343.5 616.77C343.5 609.237 350 607.354 353 603.885Z" fill="white"/>
<rect x="4" width="350" height="218" rx="20" fill="white"/>
<rect x="4" y="239" width="350" height="369" rx="8" fill="white"/>
<rect x="4" y="633" width="350" height="72" rx="8" fill="white"/>
<rect x="27" y="212" width="317" height="27" fill="white"/>
<rect x="25" y="606" width="317" height="27" fill="white"/>
</g>
<defs>
<filter id="filter0_d_288_908" x="0" y="0" width="359" height="713" filterUnits="userSpaceOnUse" color-interpolation-filters="sRGB">
<feFlood flood-opacity="0" result="BackgroundImageFix"/>
<feColorMatrix in="SourceAlpha" type="matrix" values="0 0 0 0 0 0 0 0 0 0 0 0 0 0 0 0 0 0 127 0" result="hardAlpha"/>
<feOffset dy="4"/>
<feGaussianBlur stdDeviation="2"/>
<feComposite in2="hardAlpha" operator="out"/>
<feColorMatrix type="matrix" values="0 0 0 0 0 0 0 0 0 0 0 0 0 0 0 0 0 0 0.25 0"/>
<feBlend mode="normal" in2="BackgroundImageFix" result="effect1_dropShadow_288_908"/>
<feBlend mode="normal" in="SourceGraphic" in2="effect1_dropShadow_288_908" result="shape"/>
</filter>
</defs>
</svg>
