<?xml version="1.0" encoding="UTF-8" standalone="no"?>
<svg
   xmlns:dc="http://purl.org/dc/elements/1.1/"
   xmlns:cc="http://creativecommons.org/ns#"
   xmlns:rdf="http://www.w3.org/1999/02/22-rdf-syntax-ns#"
   xmlns:svg="http://www.w3.org/2000/svg"
   xmlns="http://www.w3.org/2000/svg"
   viewBox="0 0 377.94666 355.58667"
   height="355.58667"
   width="377.94666"
   xml:space="preserve"
   id="svg2"
   version="1.1"><metadata
     id="metadata8"><rdf:RDF><cc:Work
         rdf:about=""><dc:format>image/svg+xml</dc:format><dc:type
           rdf:resource="http://purl.org/dc/dcmitype/StillImage" /></cc:Work></rdf:RDF></metadata><defs
     id="defs6" /><g
     transform="matrix(1.3333333,0,0,-1.3333333,0,355.58667)"
     id="g10"><g
       transform="scale(0.1)"
       id="g12"><path
         id="path14"
         style="fill:#231f20;fill-opacity:1;fill-rule:nonzero;stroke:none"
         d="m 365.484,812.891 c -24.945,21.73 -65.402,38.578 -121.304,50.609 -38.852,8.332 -66.801,15.031 -83.883,20.121 -17.121,5.059 -29.731,11.41 -37.793,19.027 -8.098,7.661 -12.129,18.391 -12.129,32.262 0,17.09 8.539,30.719 25.66,40.899 17.086,10.152 38.098,15.242 63.074,15.242 25.426,0 45.516,-3.93 60.313,-11.789 14.793,-7.864 26.105,-18.242 33.965,-31.192 3.246,-5.539 6.933,-9.711 11.105,-12.48 4.168,-2.758 9.942,-4.168 17.321,-4.168 h 48.523 c 5.566,0 10.18,1.75 13.871,5.226 3.691,3.454 5.297,7.961 4.852,13.5 -1.399,18.961 -9.465,38.372 -24.258,58.262 -14.797,19.85 -36.391,36.39 -64.821,49.54 -28.429,13.19 -62.05,19.75 -100.871,19.75 -34.203,0 -65.16,-6.11 -92.906,-18.34 -27.7108,-12.27 -49.5428,-29.25 -65.4999,-50.95 -15.957,-21.73 -23.9218,-46.23 -23.9218,-73.5 0,-40.219 10.7304,-70.73 32.2226,-91.512 21.4922,-20.796 56.5161,-37.207 105.0391,-49.226 18.484,-4.621 33.52,-8.102 45.066,-10.391 29.114,-6.941 50.848,-12.609 65.164,-16.98 14.317,-4.41 25.422,-9.949 33.282,-16.641 7.859,-6.699 11.789,-15.621 11.789,-26.691 0,-19.41 -10.184,-33.957 -30.516,-43.668 -20.332,-9.699 -45.754,-14.59 -76.265,-14.59 -31.434,0 -54.637,4.508 -69.672,13.527 -15,9.024 -26.446,21.153 -34.3051,36.391 -2.7695,5.57 -6.3554,9.711 -10.7304,12.473 -4.4063,2.808 -10.3203,4.168 -17.6992,4.168 H 21.6367 c -5.539,0 -10.1836,-1.711 -13.87498,-5.188 -3.69141,-3.453 -5.32813,-7.961 -4.85156,-13.531 1.40234,-26.352 11.30864,-49.789 29.83204,-70.36 18.4492,-20.57 42.7109,-36.39 72.7778,-47.492 30.035,-11.07 62.394,-16.64 97.043,-16.64 40.66,0 76.164,6.25 106.437,18.722 30.242,12.469 53.477,29.688 69.672,51.668 16.164,21.93 24.262,46.77 24.262,74.52 0,37.89 -12.473,67.691 -37.45,89.422" /><path
         id="path16"
         style="fill:#231f20;fill-opacity:1;fill-rule:nonzero;stroke:none"
         d="m 458.391,713.77 c 0,-42.551 11.547,-74.528 34.644,-96.02 23.137,-21.488 56.621,-32.258 100.528,-32.258 h 51.324 c 5.054,0 9.465,1.848 13.156,5.567 3.687,3.691 5.535,8.07 5.535,13.16 v 45.75 c 0,5.09 -1.848,9.472 -5.535,13.191 -3.691,3.692 -8.102,5.539 -13.156,5.539 h -42.301 c -19.887,0 -33.863,4.031 -41.926,12.133 -8.097,8.059 -12.133,19.75 -12.133,35.02 v 146.957 h 89.422 c 5.059,0 9.465,1.851 13.156,5.543 3.692,3.687 5.571,8.097 5.571,13.187 v 45.75 c 0,5.063 -1.879,9.473 -5.571,13.16 -3.691,3.692 -8.097,5.571 -13.156,5.571 h -89.422 v 112.99 c 0,5.06 -1.879,9.47 -5.566,13.16 -3.691,3.69 -8.102,5.53 -13.156,5.53 h -52.692 c -5.09,0 -9.5,-1.84 -13.187,-5.53 -3.692,-3.69 -5.535,-8.1 -5.535,-13.16 V 946.02 h -45.754 c -5.09,0 -9.5,-1.879 -13.192,-5.571 -3.687,-3.687 -5.535,-8.097 -5.535,-13.16 v -45.75 c 0,-5.09 1.848,-9.5 5.535,-13.187 3.692,-3.692 8.102,-5.543 13.192,-5.543 h 45.754 V 713.77" /><path
         id="path18"
         style="fill:#231f20;fill-opacity:1;fill-rule:nonzero;stroke:none"
         d="m 1005.34,591.059 c 3.69,3.691 5.57,8.07 5.57,13.16 v 323.07 c 0,5.063 -1.88,9.473 -5.57,13.16 -3.69,3.692 -8.063,5.571 -13.152,5.571 h -52.692 c -5.094,0 -9.5,-1.879 -13.191,-5.571 -3.688,-3.687 -5.535,-8.097 -5.535,-13.16 V 751.18 c 0,-28.188 -6.594,-50.5 -19.75,-66.899 -13.188,-16.402 -31.778,-24.609 -55.797,-24.609 -25.903,0 -44.969,7.969 -57.2,23.918 -12.269,15.961 -18.382,38.48 -18.382,67.59 v 176.109 c 0,5.063 -1.848,9.473 -5.536,13.16 -3.726,3.692 -8.097,5.571 -13.191,5.571 h -52.687 c -5.094,0 -9.465,-1.879 -13.157,-5.571 -3.722,-3.687 -5.57,-8.097 -5.57,-13.16 v -186.5 c 0,-48.519 11.105,-87.707 33.281,-117.508 22.211,-29.789 59.387,-44.722 111.633,-44.722 37.414,0 69.535,13.871 96.356,41.621 v -15.961 c 0,-5.09 1.847,-9.469 5.535,-13.16 3.691,-3.719 8.097,-5.567 13.191,-5.567 h 52.692 c 5.089,0 9.462,1.848 13.152,5.567" /><path
         id="path20"
         style="fill:#231f20;fill-opacity:1;fill-rule:nonzero;stroke:none"
         d="m 1301.38,739.391 c -2.28,-24.5 -11.07,-43.559 -26.34,-57.161 -15.24,-13.671 -34.41,-20.468 -57.54,-20.468 -26.35,0 -47.26,8.539 -62.74,25.66 -15.48,17.09 -23.2,43.187 -23.2,78.316 0,8.332 0.21,14.793 0.69,19.41 2.76,28.661 11.78,49.922 27.02,63.793 15.24,13.868 34.69,20.809 58.23,20.809 22.65,0 41.72,-7.07 57.2,-21.148 15.48,-14.114 24.4,-32.942 26.68,-56.52 0.93,-9.223 1.41,-18.012 1.41,-26.344 0,-8.308 -0.48,-17.09 -1.41,-26.347 z m 84.61,-148.332 c 3.69,3.691 5.53,8.07 5.53,13.16 v 454.791 c 0,5.06 -1.84,9.47 -5.53,13.16 -3.73,3.69 -8.1,5.53 -13.19,5.53 h -52.69 c -5.09,0 -9.47,-1.84 -13.16,-5.53 -3.72,-3.69 -5.57,-8.1 -5.57,-13.16 V 911.332 c -10.14,11.109 -23.78,20.809 -40.9,29.117 -17.08,8.332 -38.37,12.473 -63.76,12.473 -30.07,0 -56.51,-7.524 -79.37,-22.524 -22.9,-15.027 -40.8,-34.886 -53.75,-59.628 -12.95,-24.731 -20.09,-51.629 -21.49,-80.77 l -0.69,-24.262 0.69,-24.258 c 1.4,-29.121 8.54,-56.039 21.49,-80.75 12.95,-24.73 30.85,-44.621 53.75,-59.621 22.86,-15.039 49.3,-22.55 79.37,-22.55 25.87,0 47.36,4.171 64.48,12.5 17.09,8.312 30.48,18.011 40.18,29.121 v -15.961 c 0,-5.09 1.85,-9.469 5.57,-13.16 3.69,-3.719 8.07,-5.567 13.16,-5.567 h 52.69 c 5.09,0 9.46,1.848 13.19,5.567" /><path
         id="path22"
         style="fill:#231f20;fill-opacity:1;fill-rule:nonzero;stroke:none"
         d="m 1510.74,805.949 c 1.85,16.653 9.6,31.442 23.24,44.391 13.6,12.922 32.46,19.41 56.48,19.41 46.23,0 71.86,-21.289 76.95,-63.801 z M 1679.91,929 c -25.9,15.961 -55.73,23.922 -89.45,23.922 -33.73,0 -63.56,-8.313 -89.42,-24.953 -25.9,-16.637 -45.76,-39.149 -59.63,-67.578 -13.87,-28.43 -20.81,-59.969 -20.81,-94.653 0,-36.968 6.94,-69.539 20.81,-97.726 13.87,-28.223 33.62,-50.16 59.29,-65.883 25.62,-15.707 55.56,-23.57 89.76,-23.57 32.36,0 60.55,5.461 84.57,16.3 24.05,10.86 42.4,23.672 55.11,38.473 12.71,14.797 19.07,27.027 19.07,36.77 0,4.609 -1.85,8.636 -5.54,12.128 -3.69,3.45 -8.09,5.192 -13.15,5.192 h -55.49 c -5.54,0 -9.95,-0.723 -13.16,-2.082 -3.24,-1.399 -7.41,-3.93 -12.47,-7.621 -13.87,-10.66 -33.52,-15.957 -58.94,-15.957 -21.73,0 -40.46,5.879 -56.14,17.668 -15.72,11.781 -23.58,27.601 -23.58,47.492 h 231.57 c 5.05,0 9.46,1.848 13.15,5.566 3.69,3.692 5.54,8.063 5.54,13.16 v 31.192 c 0,31.879 -7.04,61.23 -21.12,88.058 -14.11,26.793 -34.1,48.184 -59.97,64.102" /><path
         id="path24"
         style="fill:#231f20;fill-opacity:1;fill-rule:nonzero;stroke:none"
         d="m 1977.97,952.922 c -38.81,0 -72.09,-13.84 -99.8,-41.59 v 15.957 c 0,5.063 -1.88,9.473 -5.57,13.16 -3.69,3.692 -8.1,5.571 -13.16,5.571 h -52.69 c -5.09,0 -9.5,-1.879 -13.19,-5.571 -3.69,-3.687 -5.53,-8.097 -5.53,-13.16 v -323.07 c 0,-5.09 1.84,-9.469 5.53,-13.16 3.69,-3.719 8.1,-5.567 13.19,-5.567 h 52.69 c 5.06,0 9.47,1.848 13.16,5.567 3.69,3.691 5.57,8.07 5.57,13.16 v 176.07 c 0,27.75 7.14,49.922 21.45,66.57 14.36,16.641 33.52,24.973 57.55,24.973 25.9,0 45.54,-8.094 58.94,-24.293 13.39,-16.16 20.09,-38.578 20.09,-67.25 v -176.07 c 0,-5.09 1.84,-9.469 5.57,-13.16 3.69,-3.719 8.06,-5.567 13.15,-5.567 h 52.69 c 5.1,0 9.47,1.848 13.19,5.567 3.69,3.691 5.54,8.07 5.54,13.16 v 186.5 c 0,48.043 -11.69,87.09 -35.03,117.16 -23.33,30.043 -61.12,45.043 -113.34,45.043" /><path
         id="path26"
         style="fill:#231f20;fill-opacity:1;fill-rule:nonzero;stroke:none"
         d="m 2384.25,668.699 h -42.3 c -19.89,0 -33.86,4.031 -41.93,12.133 -8.1,8.059 -12.13,19.75 -12.13,35.02 v 146.957 h 89.42 c 5.06,0 9.47,1.851 13.16,5.543 3.69,3.687 5.57,8.097 5.57,13.187 v 45.75 c 0,5.063 -1.88,9.473 -5.57,13.16 -3.69,3.692 -8.1,5.571 -13.16,5.571 h -89.42 v 112.99 c 0,5.06 -1.88,9.47 -5.57,13.16 -3.69,3.69 -8.1,5.53 -13.15,5.53 h -52.69 c -5.09,0 -9.5,-1.84 -13.19,-5.53 -3.69,-3.69 -5.54,-8.1 -5.54,-13.16 V 946.02 H 2152 c -5.09,0 -9.5,-1.879 -13.19,-5.571 -3.69,-3.687 -5.54,-8.097 -5.54,-13.16 v -45.75 c 0,-5.09 1.85,-9.5 5.54,-13.187 3.69,-3.692 8.1,-5.543 13.19,-5.543 h 45.75 V 713.77 c 0,-42.551 11.55,-74.528 34.65,-96.02 23.13,-21.488 56.62,-32.258 100.53,-32.258 h 51.32 c 5.06,0 9.47,1.848 13.16,5.567 3.69,3.691 5.53,8.07 5.53,13.16 v 45.75 c 0,5.09 -1.84,9.472 -5.53,13.191 -3.69,3.692 -8.1,5.539 -13.16,5.539" /><path
         id="path28"
         style="fill:#231f20;fill-opacity:1;fill-rule:nonzero;stroke:none"
         d="m 2596.37,799.742 c -31.43,6.899 -53.13,11.887 -65.16,14.887 -12.03,3.012 -20.43,6.461 -25.28,10.391 -4.85,3.929 -7.28,9.359 -7.28,16.3 0,9.7 4.95,16.852 14.9,21.489 9.94,4.621 22.52,6.941 37.79,6.941 14.32,0 25.04,-1.398 32.22,-4.168 7.18,-2.773 13.53,-6.492 19.07,-11.102 3.69,-3.218 7.17,-5.64 10.38,-7.281 3.25,-1.609 7.66,-2.429 13.19,-2.429 h 53.38 c 5.09,0 9.6,1.851 13.53,5.57 3.93,3.691 5.64,8.058 5.19,13.16 -0.92,15.238 -7.52,29.832 -19.75,43.66 -12.26,13.879 -29.35,24.981 -51.32,33.289 -21.94,8.332 -47.26,12.473 -75.89,12.473 -28.67,0 -53.85,-5.301 -75.58,-15.934 -21.74,-10.656 -38.38,-24.488 -49.93,-41.609 -11.55,-17.09 -17.32,-35.129 -17.32,-54.059 0,-29.59 7.76,-53.371 23.24,-71.41 15.47,-18.012 42.64,-31.441 81.46,-40.219 l 27.02,-5.543 c 23.58,-5.089 40.22,-9.019 49.93,-11.789 9.7,-2.757 16.84,-5.871 21.49,-9.359 4.61,-3.449 6.93,-8.199 6.93,-14.211 0,-9.23 -6.49,-16.059 -19.4,-20.437 -12.95,-4.403 -27.75,-6.59 -44.39,-6.59 -16.64,0 -28.87,1.84 -36.73,5.539 -7.86,3.691 -15.04,8.781 -21.5,15.269 -3.72,3.692 -7.17,6.461 -10.38,8.301 -3.25,1.848 -7.42,2.77 -12.51,2.77 h -53.37 c -5.09,0 -9.6,-1.852 -13.53,-5.539 -3.93,-3.692 -5.64,-8.09 -5.2,-13.153 0.93,-15.719 7.52,-30.988 19.79,-45.789 12.23,-14.789 29.79,-26.918 52.65,-36.39 22.9,-9.461 49.82,-14.211 80.78,-14.211 30.96,0 58.12,5.222 81.46,15.613 23.34,10.387 41.24,24.019 53.71,40.898 12.51,16.879 18.73,34.789 18.73,53.719 0,28.672 -8.78,52.242 -26.35,70.731 -17.56,18.48 -46.19,31.878 -85.97,40.222" /><path
         id="path30"
         style="fill:#231f20;fill-opacity:1;fill-rule:nonzero;stroke:none"
         d="m 2815.47,1077.7 h -60.31 c -8.82,0 -15.62,-2.66 -20.47,-7.96 -4.85,-5.33 -7.96,-11.68 -9.36,-19.06 l -17.32,-113.692 v -1.398 c 0,-4.168 1.5,-7.719 4.51,-10.731 3,-3 6.56,-4.507 10.73,-4.507 h 31.19 c 14.32,0 24.26,7.378 29.83,22.179 l 45.75,115.079 c 0.45,1.4 0.69,3.01 0.69,4.85 0,4.17 -1.51,7.73 -4.51,10.77 -3.01,2.97 -6.6,4.47 -10.73,4.47" /><path
         id="path32"
         style="fill:#231f20;fill-opacity:1;fill-rule:nonzero;stroke:none"
         d="m 379.969,492.242 h -55.453 c -5.094,0 -9.5,-1.871 -13.192,-5.562 -3.691,-3.7 -5.535,-8.098 -5.535,-13.16 V 192.75 c 0,-36.531 -9.465,-63.352 -28.43,-80.441 -18.964,-17.0785 -44.828,-25.6606 -77.632,-25.6606 -32.836,0 -58.497,8.5821 -76.95,25.6606 -18.488,17.089 -27.7457,43.91 -27.7457,80.441 v 280.77 c 0,5.062 -1.8438,9.46 -5.5352,13.16 -3.7266,3.691 -8.0977,5.562 -13.1914,5.562 H 20.1641 c -5.0899,0 -9.4649,-1.871 -13.18754,-5.562 -3.6914,-3.7 -5.53515,-8.098 -5.53515,-13.16 V 189.262 C 1.44141,130.559 18.3203,84.3594 52.0469,50.6016 85.7695,16.8789 135.012,0 199.727,0 c 64.238,0 113.441,16.9805 147.644,50.9805 34.203,33.9609 51.324,80.0585 51.324,138.2815 V 473.52 c 0,5.062 -1.879,9.46 -5.57,13.16 -3.687,3.691 -8.062,5.562 -13.156,5.562" /><path
         id="path34"
         style="fill:#231f20;fill-opacity:1;fill-rule:nonzero;stroke:none"
         d="m 638.531,374.359 c -38.816,0 -72.097,-13.839 -99.808,-41.578 v 15.949 c 0,5.059 -1.879,9.469 -5.571,13.161 -3.691,3.691 -8.097,5.57 -13.156,5.57 h -52.687 c -5.09,0 -9.5,-1.879 -13.192,-5.57 -3.687,-3.692 -5.535,-8.102 -5.535,-13.161 V 25.6602 c 0,-5.0899 1.848,-9.461 5.535,-13.1485 3.692,-3.73045 8.102,-5.57029 13.192,-5.57029 h 52.687 c 5.059,0 9.465,1.83984 13.156,5.57029 3.692,3.6875 5.571,8.0586 5.571,13.1485 V 201.742 c 0,27.738 7.14,49.918 21.457,66.559 14.351,16.64 33.519,24.98 57.543,24.98 25.898,0 45.547,-8.101 58.941,-24.301 13.395,-16.16 20.094,-38.582 20.094,-67.238 V 25.6602 c 0,-5.0899 1.844,-9.461 5.566,-13.1485 3.692,-3.73045 8.067,-5.57029 13.156,-5.57029 h 52.692 c 5.09,0 9.465,1.83984 13.187,5.57029 3.692,3.6875 5.536,8.0586 5.536,13.1485 V 212.16 c 0,48.039 -11.684,87.102 -35.024,117.16 -23.336,30.039 -61.129,45.039 -113.34,45.039" /><path
         id="path36"
         style="fill:#231f20;fill-opacity:1;fill-rule:nonzero;stroke:none"
         d="m 905.43,499.148 h -59.625 c -5.094,0 -9.465,-1.847 -13.157,-5.539 -3.722,-3.687 -5.57,-8.097 -5.57,-13.148 v -54.09 c 0,-5.101 1.848,-9.473 5.57,-13.16 3.692,-3.719 8.063,-5.57 13.157,-5.57 h 59.625 c 5.09,0 9.465,1.851 13.187,5.57 3.692,3.687 5.535,8.059 5.535,13.16 v 54.09 c 0,5.051 -1.843,9.461 -5.535,13.148 -3.722,3.692 -8.097,5.539 -13.187,5.539" /><path
         id="path38"
         style="fill:#231f20;fill-opacity:1;fill-rule:nonzero;stroke:none"
         d="m 901.977,367.461 h -52.688 c -5.094,0 -9.5,-1.879 -13.191,-5.57 -3.688,-3.692 -5.535,-8.102 -5.535,-13.161 V 25.6602 c 0,-5.0899 1.847,-9.461 5.535,-13.1485 3.691,-3.73045 8.097,-5.57029 13.191,-5.57029 h 52.688 c 5.058,0 9.464,1.83984 13.156,5.57029 3.691,3.6875 5.57,8.0586 5.57,13.1485 V 348.73 c 0,5.059 -1.879,9.469 -5.57,13.161 -3.692,3.691 -8.098,5.57 -13.156,5.57" /><path
         id="path40"
         style="fill:#231f20;fill-opacity:1;fill-rule:nonzero;stroke:none"
         d="m 1210.46,155.98 c -2.77,-26.339 -11.89,-45.031 -27.37,-56.1402 -15.51,-11.0976 -34.34,-16.6406 -56.52,-16.6406 -22.17,0 -41,5.543 -56.48,16.6406 -15.51,11.1092 -24.63,29.8012 -27.4,56.1402 -0.45,4.622 -0.69,15.04 -0.69,31.2 0,16.199 0.24,26.582 0.69,31.199 2.77,26.34 11.89,45.07 27.4,56.172 15.48,11.07 34.31,16.64 56.48,16.64 22.18,0 41.01,-5.57 56.52,-16.64 15.48,-11.102 24.6,-29.832 27.37,-56.172 0.92,-9.231 1.4,-19.649 1.4,-31.199 0,-11.551 -0.48,-21.942 -1.4,-31.2 z m 64.48,143.512 c -14.8,23.098 -35.03,41.379 -60.65,54.778 -25.66,13.39 -54.91,20.089 -87.72,20.089 -32.8,0 -62.05,-6.699 -87.68,-20.089 -25.66,-13.399 -45.886,-31.68 -60.679,-54.778 -14.797,-23.094 -23.34,-48.992 -25.629,-77.633 -0.477,-5.527 -0.719,-17.32 -0.719,-35.359 0,-17.57 0.242,-29.121 0.719,-34.648 C 954.871,123.621 963.414,98 978.211,74.9023 993.004,51.7695 1013.23,33.5195 1038.89,20.1211 1064.52,6.73047 1093.77,0 1126.57,0 c 32.81,0 62.06,6.73047 87.72,20.1211 25.62,13.3984 45.85,31.6484 60.65,54.7812 14.79,23.0977 23.34,48.7187 25.66,76.9497 0.92,11.07 1.37,22.617 1.37,34.648 0,12.469 -0.45,24.262 -1.37,35.359 -2.32,28.641 -10.87,54.539 -25.66,77.633" /><path
         id="path42"
         style="fill:#231f20;fill-opacity:1;fill-rule:nonzero;stroke:none"
         d="m 1521.74,374.359 c -38.81,0 -72.09,-13.839 -99.81,-41.578 v 15.949 c 0,5.059 -1.87,9.469 -5.57,13.161 -3.69,3.691 -8.09,5.57 -13.15,5.57 h -52.69 c -5.09,0 -9.5,-1.879 -13.19,-5.57 -3.69,-3.692 -5.53,-8.102 -5.53,-13.161 V 25.6602 c 0,-5.0899 1.84,-9.461 5.53,-13.1485 3.69,-3.73045 8.1,-5.57029 13.19,-5.57029 h 52.69 c 5.06,0 9.46,1.83984 13.15,5.57029 3.7,3.6875 5.57,8.0586 5.57,13.1485 V 201.742 c 0,27.738 7.15,49.918 21.46,66.559 14.35,16.64 33.52,24.98 57.54,24.98 25.9,0 45.55,-8.101 58.95,-24.301 13.39,-16.16 20.09,-38.582 20.09,-67.238 V 25.6602 c 0,-5.0899 1.84,-9.461 5.57,-13.1485 3.69,-3.73045 8.06,-5.57029 13.15,-5.57029 h 52.69 c 5.09,0 9.47,1.83984 13.19,5.57029 3.69,3.6875 5.54,8.0586 5.54,13.1485 V 212.16 c 0,48.039 -11.69,87.102 -35.03,117.16 -23.33,30.039 -61.13,45.039 -113.34,45.039" /><path
         id="path44"
         style="fill:#231f20;fill-opacity:1;fill-rule:nonzero;stroke:none"
         d="m 546.785,2419.54 165.93,-429.87 H 380.895 Z M 76.2031,1595.99 H 184.793 c 30.172,0 49.785,12.55 58.84,37.7 l 64.855,167.44 h 476.629 l 64.856,-167.44 c 9.054,-25.15 28.668,-37.7 58.84,-37.7 H 1017.4 c 11.07,0 20.61,4.01 28.67,12.06 8.03,8.05 12.06,17.58 12.06,28.67 0,4 -0.51,7.53 -1.5,10.56 l -369.544,953.27 c -6.047,18.09 -13.359,31.16 -21.867,39.21 -8.578,8.05 -20.367,12.08 -35.469,12.08 H 463.855 c -15.101,0 -26.925,-4.03 -35.464,-12.08 -8.543,-8.05 -15.825,-21.12 -21.871,-39.21 L 36.9766,1647.28 c -1.0235,-3.03 -1.5039,-6.56 -1.5039,-10.56 0,-11.09 4,-20.62 12.0625,-28.67 8.0312,-8.05 17.5976,-12.06 28.6679,-12.06" /><path
         id="path46"
         style="fill:#231f20;fill-opacity:1;fill-rule:nonzero;stroke:none"
         d="m 1116.97,1595.99 h 114.64 c 11.04,0 20.57,4.01 28.63,12.06 8.07,8.05 12.1,17.58 12.1,28.67 v 392.16 c 0,60.34 13.29,103.82 39.94,130.48 26.66,26.63 70.15,39.98 130.5,39.98 h 98.03 128.17 v -324.31 c 0,-92.53 25.15,-162.15 75.45,-208.91 50.26,-46.76 123.14,-70.13 218.68,-70.13 h 111.63 c 11.04,0 20.61,4.01 28.67,12.06 8.03,8.05 12.06,17.58 12.06,28.67 v 99.55 c 0,11.05 -4.03,20.59 -12.06,28.65 -8.06,8.03 -17.63,12.06 -28.67,12.06 h -92.02 c -43.25,0 -73.67,8.8 -91.26,26.4 -17.6,17.58 -26.38,43 -26.38,76.18 v 319.78 h 194.56 c 11.07,0 20.6,3.99 28.67,12.06 8.03,8.03 12.06,17.58 12.06,28.65 v 99.55 c 0,11.06 -4.03,20.61 -12.06,28.67 -8.07,8.03 -17.6,12.06 -28.67,12.06 h -194.56 v 245.87 c 0,11.05 -4.03,20.59 -12.06,28.65 -8.07,8.04 -17.6,12.06 -28.67,12.06 h -114.64 c -11.07,0 -20.6,-4.02 -28.67,-12.06 -8.03,-8.06 -12.06,-17.6 -12.06,-28.65 v -245.87 h -128.17 -67.86 c -46.27,0 -84.47,-6.03 -114.64,-18.09 -30.17,-12.08 -58.84,-31.18 -85.97,-57.32 v 34.68 c 0,11.06 -4.03,20.61 -12.1,28.67 -8.06,8.03 -17.59,12.06 -28.63,12.06 h -114.64 c -11.07,0 -20.64,-4.03 -28.67,-12.06 -8.06,-8.06 -12.06,-17.61 -12.06,-28.67 v -702.88 c 0,-11.09 4,-20.62 12.06,-28.67 8.03,-8.05 17.6,-12.06 28.67,-12.06" /><path
         id="path48"
         style="fill:#231f20;fill-opacity:1;fill-rule:nonzero;stroke:none"
         d="m 2270.09,1611.83 c 49.75,-20.61 108.32,-30.93 175.7,-30.93 67.38,0 126.46,11.31 177.24,33.95 50.77,22.62 89.76,52.26 116.89,88.98 27.16,36.69 40.73,75.67 40.73,116.91 0,62.32 -19.1,113.61 -57.3,153.85 -38.24,40.2 -100.56,69.37 -187.05,87.49 -68.4,15.06 -115.66,25.86 -141.8,32.42 -26.14,6.53 -44.49,14.06 -55.05,22.63 -10.55,8.52 -15.82,20.36 -15.82,35.44 0,21.12 10.8,36.7 32.43,46.77 21.6,10.02 49,15.08 82.21,15.08 31.13,0 54.54,-3.02 70.12,-9.05 15.58,-6.03 29.42,-14.1 41.48,-24.14 8.03,-7.04 15.58,-12.32 22.62,-15.84 7.04,-3.54 16.61,-5.28 28.67,-5.28 h 116.14 c 11.07,0 20.84,4.02 29.42,12.06 8.54,8.05 12.3,17.6 11.31,28.67 -2.02,33.18 -16.37,64.85 -42.99,95.02 -26.65,30.18 -63.86,54.3 -111.63,72.41 -47.77,18.09 -102.81,27.15 -165.14,27.15 -62.39,0 -117.17,-11.57 -164.42,-34.7 -47.29,-23.13 -83.48,-53.31 -108.59,-90.5 -25.15,-37.21 -37.73,-76.43 -37.73,-117.65 0,-64.37 16.82,-116.14 50.54,-155.36 33.66,-39.21 92.77,-68.39 177.24,-87.48 l 58.8,-12.08 c 51.29,-11.07 87.51,-19.6 108.63,-25.64 21.12,-6.03 36.66,-12.81 46.74,-20.35 10.05,-7.55 15.07,-17.87 15.07,-30.92 0,-20.13 -14.08,-34.96 -42.23,-44.51 -28.16,-9.57 -60.31,-14.32 -96.53,-14.32 -36.19,0 -62.84,4 -79.92,12.07 -17.12,8.03 -32.7,19.08 -46.78,33.18 -8.07,8.04 -15.58,14.07 -22.62,18.11 -7.04,3.99 -16.1,6.03 -27.17,6.03 h -116.14 c -11.07,0 -20.88,-4.04 -29.38,-12.09 -8.58,-8.04 -12.34,-17.59 -11.31,-28.64 1.98,-34.21 16.33,-67.39 42.98,-99.56 26.62,-32.18 64.86,-58.58 114.64,-79.18" /><path
         id="path50"
         style="fill:#231f20;fill-opacity:1;fill-rule:nonzero;stroke:none"
         d="m 32.0508,1187.85 2778.7992,151.3 c 13.88,0.76 24.51,12.62 23.76,26.5 l -5.52,101.33 c -0.76,13.88 -12.62,24.51 -26.5,23.76 L 23.7969,1339.44 C 9.91797,1338.68 -0.71875,1326.82 0.0390625,1312.94 L 5.55469,1211.61 c 0.75781,-13.88 12.61721,-24.52 26.49611,-23.76" /></g></g></svg>