<?xml version="1.0" encoding="UTF-8"?><svg id="Layer_1" xmlns="http://www.w3.org/2000/svg" viewBox="0 0 141.57 124.19"><defs><style>.cls-1{fill:none;stroke-width:4px;}.cls-1,.cls-2{stroke:#000;stroke-miterlimit:10;}</style></defs><path class="cls-1" d="m6.54,59.84L96.3,3.59s8.52-4.56,14.09,1.76l6.66,10.62s-14.24,9.07-5.84,21.53c8.4,12.46,21.4,3.29,21.4,3.29l6.39,10.2s3,7.35-4.8,13.85l-88.99,55.77s-6.94,4.35-12.63-1.46l-7.05-11.26s13.21-9.31,6.27-20.63c-6.95-11.32-21.69-3.99-21.69-3.99l-7.05-11.26s-3.96-6.55,3.49-12.2Z"/><rect class="cls-2" x="45.97" y="55.49" width="4.97" height="13.41" rx="2.48" ry="2.48" transform="translate(-25.63 35.22) rotate(-32.07)"/><rect class="cls-2" x="58.59" y="75.63" width="4.97" height="13.41" rx="2.48" ry="2.48" transform="translate(-34.4 45) rotate(-32.07)"/><rect class="cls-2" x="69.52" y="95.4" width="4.97" height="8.75" rx="2.48" ry="2.48" transform="translate(-41.99 53.46) rotate(-32.07)"/><rect class="cls-2" x="35.32" y="40.36" width="4.97" height="8.75" rx="2.48" ry="2.48" transform="translate(-17.98 26.9) rotate(-32.07)"/></svg>