<svg width="333" height="212" viewBox="0 0 333 212" fill="none" xmlns="http://www.w3.org/2000/svg">
<g opacity="0.18">
<path d="M86.1074 -37.3087C26.7049 -49.9459 18.2712 -81.035 21.4796 -95H0.853692C-1.89643 -77.1432 0.166161 -32.5011 35.2302 -21.5123C70.2942 -10.5235 78.8472 -16.0616 94.3577 0.465324C104.671 11.4541 112.233 19.6957 112.233 29.9978C112.233 65.0246 114.525 66.8561 114.984 73.953C121.171 102.799 146.61 142.633 191.299 142.633C235.989 142.633 283.428 124.776 304.054 121.342C324.68 117.908 367.994 108.293 418.184 153.622C458.336 189.885 489.458 207.65 500 212V172.852C495.187 173.997 477.862 169.556 447.06 142.633C416.259 115.711 391.6 100.738 383.12 96.6174C333.618 69.1454 302.679 84.9418 229.113 104.172C170.261 119.557 143.172 90.4362 136.984 73.953C127.634 56.3709 128.047 19.0089 129.422 2.52573C131.622 -27.1441 101.462 -36.393 86.1074 -37.3087Z" fill="white"/>
<path d="M433.33 94.8941C469.105 123.516 491.35 132.965 498 134.111V152C479.837 148.147 469.793 141.68 439.522 118.287C381.732 81.1337 395.492 85.9499 370.037 73.5655C344.581 61.181 308.807 68.0613 272.344 79.0696C235.881 90.078 207.674 88.7019 188.411 83.1978C169.148 77.6936 145.756 52.2368 148.508 23.3398C151.26 -5.55711 149.884 -14.5014 142.317 -29.6379C134.749 -44.7744 118.925 -44.7744 83.8387 -55.0947C55.7693 -63.351 46.9173 -85.1383 46 -95H70.0791C75.583 -79.8635 90.0304 -61.9749 118.925 -57.8468C147.82 -53.7187 153.324 -49.5905 160.892 -38.5822C166.946 -29.7755 166.625 1.32311 165.708 15.7716C170.111 48.7966 191.851 64.3918 202.17 68.0613C256.521 81.1337 261.336 63.2451 314.311 54.9889C367.285 46.7326 388.612 59.117 433.33 94.8941Z" fill="white"/>
</g>
</svg>
