<?xml version="1.0" encoding="UTF-8"?><svg id="Layer_1" xmlns="http://www.w3.org/2000/svg" viewBox="0 0 283.46 266.69"><defs><style>.cls-1{fill:#fff;}</style></defs><path class="cls-1" d="M36.55,185.4c-2.49-2.17-6.54-3.86-12.13-5.06-3.89-.83-6.68-1.5-8.39-2.01-1.71-.51-2.97-1.14-3.78-1.9-.81-.77-1.21-1.84-1.21-3.23,0-1.71,.85-3.07,2.57-4.09,1.71-1.01,3.81-1.52,6.31-1.52s4.55,.39,6.03,1.18,2.61,1.82,3.4,3.12c.32,.55,.69,.97,1.11,1.25,.42,.28,.99,.42,1.73,.42h4.85c.56,0,1.02-.17,1.39-.52,.37-.35,.53-.8,.49-1.35-.14-1.9-.95-3.84-2.43-5.83-1.48-1.99-3.64-3.64-6.48-4.95-2.84-1.32-6.21-1.98-10.09-1.98-3.42,0-6.52,.61-9.29,1.83-2.77,1.23-4.95,2.92-6.55,5.09-1.6,2.17-2.39,4.62-2.39,7.35,0,4.02,1.07,7.07,3.22,9.15,2.15,2.08,5.65,3.72,10.5,4.92,1.85,.46,3.35,.81,4.51,1.04,2.91,.69,5.08,1.26,6.52,1.7,1.43,.44,2.54,.99,3.33,1.66,.79,.67,1.18,1.56,1.18,2.67,0,1.94-1.02,3.4-3.05,4.37-2.03,.97-4.58,1.46-7.63,1.46s-5.46-.45-6.97-1.35c-1.5-.9-2.64-2.12-3.43-3.64-.28-.56-.64-.97-1.07-1.25-.44-.28-1.03-.42-1.77-.42H2.16c-.55,0-1.02,.17-1.39,.52-.37,.35-.53,.8-.49,1.35,.14,2.63,1.13,4.98,2.98,7.04,1.85,2.06,4.27,3.64,7.28,4.75,3,1.11,6.24,1.66,9.7,1.66,4.07,0,7.62-.63,10.64-1.87,3.02-1.25,5.35-2.97,6.97-5.17,1.62-2.19,2.43-4.68,2.43-7.45,0-3.79-1.25-6.77-3.74-8.94Z"/><path class="cls-1" d="M45.84,195.31c0,4.25,1.15,7.45,3.46,9.6,2.31,2.15,5.66,3.23,10.05,3.23h5.13c.51,0,.95-.18,1.32-.56,.37-.37,.55-.81,.55-1.32v-4.58c0-.51-.18-.95-.55-1.32-.37-.37-.81-.55-1.32-.55h-4.23c-1.99,0-3.39-.4-4.19-1.21-.81-.81-1.21-1.98-1.21-3.5v-14.7h8.94c.51,0,.95-.18,1.32-.55s.56-.81,.56-1.32v-4.58c0-.51-.19-.95-.56-1.32s-.81-.56-1.32-.56h-8.94v-11.3c0-.51-.19-.95-.56-1.32s-.81-.55-1.32-.55h-5.27c-.51,0-.95,.18-1.32,.55-.37,.37-.55,.81-.55,1.32v11.3h-4.58c-.51,0-.95,.19-1.32,.56s-.55,.81-.55,1.32v4.58c0,.51,.18,.95,.55,1.32s.81,.55,1.32,.55h4.58v14.9Z"/><path class="cls-1" d="M100.53,207.58c.37-.37,.56-.81,.56-1.32v-32.31c0-.51-.19-.95-.56-1.32-.37-.37-.81-.56-1.32-.56h-5.27c-.51,0-.95,.19-1.32,.56-.37,.37-.55,.81-.55,1.32v17.61c0,2.82-.66,5.05-1.97,6.69-1.32,1.64-3.18,2.46-5.58,2.46-2.59,0-4.5-.8-5.72-2.39-1.23-1.6-1.84-3.85-1.84-6.76v-17.61c0-.51-.18-.95-.55-1.32-.37-.37-.81-.56-1.32-.56h-5.27c-.51,0-.95,.19-1.32,.56-.37,.37-.56,.81-.56,1.32v18.65c0,4.85,1.11,8.77,3.33,11.75,2.22,2.98,5.94,4.47,11.16,4.47,3.74,0,6.95-1.39,9.64-4.16v1.6c0,.51,.18,.95,.55,1.32,.37,.37,.81,.56,1.32,.56h5.27c.51,0,.95-.18,1.32-.56Z"/><path class="cls-1" d="M138.6,207.58c.37-.37,.55-.81,.55-1.32v-45.48c0-.51-.18-.95-.55-1.32-.37-.37-.81-.55-1.32-.55h-5.27c-.51,0-.95,.18-1.32,.55-.37,.37-.56,.81-.56,1.32v14.77c-1.01-1.11-2.38-2.08-4.09-2.91-1.71-.83-3.84-1.25-6.38-1.25-3.01,0-5.65,.75-7.94,2.25-2.29,1.5-4.08,3.49-5.37,5.96-1.29,2.47-2.01,5.16-2.15,8.08l-.07,2.43,.07,2.43c.14,2.91,.85,5.6,2.15,8.07,1.3,2.47,3.09,4.46,5.37,5.96,2.29,1.5,4.93,2.26,7.94,2.26,2.59,0,4.74-.42,6.45-1.25,1.71-.83,3.05-1.8,4.02-2.91v1.6c0,.51,.18,.95,.56,1.32,.37,.37,.81,.56,1.32,.56h5.27c.51,0,.95-.18,1.32-.56Zm-8.46-14.83c-.23,2.45-1.11,4.36-2.63,5.72-1.52,1.37-3.44,2.05-5.75,2.05-2.63,0-4.73-.85-6.27-2.57-1.55-1.71-2.32-4.32-2.32-7.83,0-.83,.02-1.48,.07-1.94,.28-2.87,1.18-4.99,2.7-6.38,1.52-1.39,3.47-2.08,5.82-2.08s4.17,.71,5.72,2.12c1.55,1.41,2.44,3.29,2.67,5.65,.09,.92,.14,1.8,.14,2.63s-.05,1.71-.14,2.63Z"/><path class="cls-1" d="M167.99,173.79c-2.59-1.6-5.57-2.39-8.95-2.39s-6.36,.83-8.94,2.49c-2.59,1.66-4.58,3.92-5.96,6.76-1.39,2.84-2.08,6-2.08,9.47,0,3.7,.69,6.95,2.08,9.77,1.39,2.82,3.36,5.02,5.93,6.59,2.56,1.57,5.56,2.36,8.98,2.36,3.24,0,6.05-.55,8.46-1.63,2.41-1.09,4.24-2.37,5.51-3.85,1.27-1.48,1.91-2.7,1.91-3.68,0-.46-.18-.86-.55-1.21-.37-.35-.81-.52-1.32-.52h-5.55c-.55,0-.99,.07-1.32,.21-.32,.14-.74,.39-1.25,.76-1.39,1.07-3.35,1.6-5.89,1.6-2.17,0-4.05-.59-5.61-1.77-1.57-1.18-2.36-2.76-2.36-4.75h23.16c.51,0,.95-.18,1.32-.56,.37-.37,.55-.81,.55-1.32v-3.12c0-3.19-.7-6.12-2.11-8.81-1.41-2.68-3.41-4.82-6-6.41Zm-16.92,12.3c.18-1.66,.96-3.14,2.32-4.44,1.36-1.29,3.25-1.94,5.65-1.94,4.62,0,7.19,2.13,7.69,6.38h-15.67Z"/><path class="cls-1" d="M197.8,171.4c-3.88,0-7.21,1.38-9.98,4.16v-1.6c0-.51-.19-.95-.56-1.32-.37-.37-.81-.56-1.32-.56h-5.27c-.51,0-.95,.19-1.32,.56-.37,.37-.55,.81-.55,1.32v32.31c0,.51,.18,.95,.55,1.32,.37,.37,.81,.56,1.32,.56h5.27c.51,0,.95-.18,1.32-.56,.37-.37,.56-.81,.56-1.32v-17.61c0-2.77,.71-4.99,2.15-6.66,1.43-1.66,3.35-2.5,5.75-2.5,2.59,0,4.55,.81,5.89,2.43,1.34,1.62,2.01,3.86,2.01,6.72v17.61c0,.51,.18,.95,.56,1.32,.37,.37,.81,.56,1.32,.56h5.27c.51,0,.95-.18,1.32-.56,.37-.37,.55-.81,.55-1.32v-18.65c0-4.8-1.17-8.71-3.5-11.72-2.33-3-6.11-4.5-11.33-4.5Z"/><path class="cls-1" d="M238.42,199.82h-4.23c-1.99,0-3.39-.4-4.19-1.21-.81-.81-1.21-1.98-1.21-3.5v-14.7h8.94c.51,0,.95-.18,1.32-.55,.37-.37,.56-.81,.56-1.32v-4.58c0-.51-.19-.95-.56-1.32-.37-.37-.81-.56-1.32-.56h-8.94v-11.3c0-.51-.19-.95-.56-1.32s-.81-.55-1.32-.55h-5.27c-.51,0-.95,.18-1.32,.55-.37,.37-.55,.81-.55,1.32v11.3h-4.58c-.51,0-.95,.19-1.32,.56-.37,.37-.55,.81-.55,1.32v4.58c0,.51,.18,.95,.55,1.32,.37,.37,.81,.55,1.32,.55h4.58v14.9c0,4.25,1.15,7.45,3.46,9.6,2.31,2.15,5.66,3.23,10.05,3.23h5.13c.51,0,.95-.18,1.32-.56,.37-.37,.55-.81,.55-1.32v-4.58c0-.51-.18-.95-.55-1.32-.37-.37-.81-.55-1.32-.55Z"/><path class="cls-1" d="M259.64,186.72c-3.14-.69-5.31-1.19-6.52-1.49-1.2-.3-2.04-.65-2.53-1.04-.49-.39-.73-.94-.73-1.63,0-.97,.5-1.68,1.49-2.15,.99-.46,2.25-.69,3.78-.69,1.43,0,2.5,.14,3.22,.42,.72,.28,1.35,.65,1.91,1.11,.37,.32,.72,.56,1.04,.73,.32,.16,.77,.24,1.32,.24h5.34c.51,0,.96-.18,1.35-.56,.39-.37,.56-.81,.52-1.32-.09-1.52-.75-2.98-1.97-4.37-1.23-1.39-2.94-2.5-5.13-3.33-2.19-.83-4.73-1.25-7.59-1.25s-5.39,.53-7.56,1.59c-2.17,1.07-3.84,2.45-4.99,4.16-1.15,1.71-1.73,3.51-1.73,5.41,0,2.96,.78,5.34,2.32,7.14,1.55,1.8,4.26,3.14,8.15,4.02l2.7,.55c2.36,.51,4.02,.9,4.99,1.18,.97,.28,1.68,.59,2.15,.94,.46,.35,.69,.82,.69,1.42,0,.92-.65,1.61-1.94,2.04-1.29,.44-2.77,.66-4.44,.66s-2.89-.18-3.67-.55c-.79-.37-1.5-.88-2.15-1.53-.37-.37-.72-.65-1.04-.83-.32-.18-.74-.28-1.25-.28h-5.34c-.51,0-.96,.18-1.35,.55-.39,.37-.56,.81-.52,1.32,.09,1.57,.75,3.1,1.98,4.58,1.22,1.48,2.98,2.69,5.27,3.64,2.29,.95,4.98,1.42,8.08,1.42s5.81-.52,8.15-1.56c2.33-1.04,4.12-2.4,5.37-4.09,1.25-1.69,1.87-3.48,1.87-5.37,0-2.87-.88-5.22-2.63-7.07-1.76-1.85-4.62-3.19-8.6-4.02Z"/><path class="cls-1" d="M281.55,158.92h-6.03c-.88,0-1.56,.27-2.05,.8-.49,.53-.8,1.17-.94,1.91l-1.73,11.37v.14c0,.42,.15,.77,.45,1.07,.3,.3,.66,.45,1.07,.45h3.12c1.43,0,2.43-.74,2.98-2.22l4.58-11.51c.04-.14,.07-.3,.07-.49,0-.42-.15-.77-.45-1.08-.3-.3-.66-.45-1.07-.45Z"/><path class="cls-1" d="M38,217.47h-5.55c-.51,0-.95,.19-1.32,.56s-.55,.81-.55,1.32v28.08c0,3.65-.95,6.34-2.84,8.04-1.9,1.71-4.48,2.57-7.76,2.57s-5.85-.86-7.69-2.57c-1.85-1.71-2.77-4.39-2.77-8.04v-28.08c0-.51-.18-.95-.55-1.32-.37-.37-.81-.56-1.32-.56H2.02c-.51,0-.95,.19-1.32,.56-.37,.37-.55,.81-.55,1.32v28.43c0,5.87,1.69,10.49,5.06,13.87,3.37,3.37,8.3,5.06,14.77,5.06s11.34-1.7,14.76-5.1c3.42-3.4,5.13-8.01,5.13-13.83v-28.43c0-.51-.19-.95-.56-1.32s-.81-.56-1.32-.56Z"/><path class="cls-1" d="M63.85,229.26c-3.88,0-7.21,1.38-9.98,4.16v-1.6c0-.51-.19-.95-.56-1.32-.37-.37-.81-.56-1.32-.56h-5.27c-.51,0-.95,.19-1.32,.56s-.55,.81-.55,1.32v32.31c0,.51,.18,.95,.55,1.32,.37,.37,.81,.56,1.32,.56h5.27c.51,0,.95-.18,1.32-.56,.37-.37,.56-.81,.56-1.32v-17.61c0-2.77,.71-4.99,2.15-6.66,1.44-1.66,3.35-2.5,5.75-2.5,2.59,0,4.55,.81,5.89,2.43,1.34,1.62,2.01,3.86,2.01,6.72v17.61c0,.51,.18,.95,.56,1.32,.37,.37,.81,.56,1.32,.56h5.27c.51,0,.95-.18,1.32-.56,.37-.37,.55-.81,.55-1.32v-18.65c0-4.8-1.17-8.71-3.5-11.72-2.33-3-6.11-4.5-11.33-4.5Z"/><path class="cls-1" d="M90.54,216.78h-5.96c-.51,0-.95,.18-1.32,.55-.37,.37-.56,.81-.56,1.32v5.41c0,.51,.18,.95,.56,1.32,.37,.37,.81,.56,1.32,.56h5.96c.51,0,.95-.18,1.32-.56s.55-.81,.55-1.32v-5.41c0-.51-.18-.95-.55-1.32-.37-.37-.81-.55-1.32-.55Z"/><path class="cls-1" d="M90.2,229.95h-5.27c-.51,0-.95,.19-1.32,.56-.37,.37-.55,.81-.55,1.32v32.31c0,.51,.18,.95,.55,1.32,.37,.37,.81,.56,1.32,.56h5.27c.51,0,.95-.18,1.32-.56,.37-.37,.56-.81,.56-1.32v-32.31c0-.51-.19-.95-.56-1.32-.37-.37-.81-.56-1.32-.56Z"/><path class="cls-1" d="M127.49,236.74c-1.48-2.31-3.5-4.14-6.07-5.48-2.57-1.34-5.49-2.01-8.77-2.01s-6.21,.67-8.77,2.01c-2.57,1.34-4.59,3.17-6.07,5.48-1.48,2.31-2.33,4.9-2.56,7.76-.05,.55-.07,1.73-.07,3.54s.02,2.91,.07,3.46c.23,2.82,1.08,5.39,2.56,7.69,1.48,2.31,3.5,4.14,6.07,5.48,2.56,1.34,5.49,2.01,8.77,2.01s6.21-.67,8.77-2.01c2.56-1.34,4.59-3.16,6.07-5.48,1.48-2.31,2.33-4.87,2.57-7.69,.09-1.11,.14-2.26,.14-3.46s-.04-2.43-.14-3.54c-.23-2.86-1.09-5.45-2.57-7.76Zm-6.45,14.35c-.28,2.63-1.19,4.5-2.74,5.61-1.55,1.11-3.43,1.66-5.65,1.66s-4.1-.55-5.65-1.66c-1.55-1.11-2.46-2.98-2.74-5.61-.04-.46-.07-1.5-.07-3.12s.02-2.66,.07-3.12c.28-2.63,1.19-4.51,2.74-5.62,1.55-1.11,3.43-1.66,5.65-1.66s4.1,.56,5.65,1.66c1.55,1.11,2.46,2.98,2.74,5.62,.09,.92,.14,1.96,.14,3.12s-.05,2.19-.14,3.12Z"/><path class="cls-1" d="M152.17,229.26c-3.88,0-7.21,1.38-9.98,4.16v-1.6c0-.51-.19-.95-.56-1.32s-.81-.56-1.32-.56h-5.27c-.51,0-.95,.19-1.32,.56-.37,.37-.55,.81-.55,1.32v32.31c0,.51,.18,.95,.55,1.32,.37,.37,.81,.56,1.32,.56h5.27c.51,0,.95-.18,1.32-.56,.37-.37,.56-.81,.56-1.32v-17.61c0-2.77,.71-4.99,2.15-6.66,1.44-1.66,3.35-2.5,5.75-2.5,2.59,0,4.55,.81,5.89,2.43,1.34,1.62,2.01,3.86,2.01,6.72v17.61c0,.51,.18,.95,.56,1.32,.37,.37,.81,.56,1.32,.56h5.27c.51,0,.95-.18,1.32-.56,.37-.37,.55-.81,.55-1.32v-18.65c0-4.8-1.17-8.71-3.5-11.72-2.33-3-6.11-4.5-11.33-4.5Z"/><path class="cls-1" d="M7.62,107.09h10.86c3.02,0,4.98-1.26,5.88-3.77l6.49-16.74h47.66l6.49,16.74c.91,2.51,2.87,3.77,5.88,3.77h10.86c1.11,0,2.06-.4,2.87-1.21,.8-.8,1.21-1.76,1.21-2.87,0-.4-.05-.75-.15-1.06L68.71,6.64c-.6-1.81-1.34-3.12-2.19-3.92-.86-.8-2.04-1.21-3.55-1.21h-16.59c-1.51,0-2.69,.4-3.55,1.21-.85,.8-1.58,2.11-2.19,3.92L3.7,101.96c-.1,.3-.15,.66-.15,1.06,0,1.11,.4,2.06,1.21,2.87,.8,.8,1.76,1.21,2.87,1.21ZM54.68,24.74l16.59,42.99H38.09L54.68,24.74Z"/><path class="cls-1" d="M111.7,107.09h11.46c1.1,0,2.06-.4,2.86-1.21s1.21-1.76,1.21-2.87V63.8c0-6.03,1.33-10.38,3.99-13.05,2.67-2.66,7.01-4,13.05-4h22.62v32.43c0,9.25,2.51,16.22,7.54,20.89,5.03,4.68,12.31,7.01,21.87,7.01h11.16c1.1,0,2.06-.4,2.87-1.21,.8-.8,1.21-1.76,1.21-2.87v-9.96c0-1.11-.4-2.06-1.21-2.87-.81-.8-1.76-1.21-2.87-1.21h-9.2c-4.33,0-7.37-.88-9.13-2.64-1.76-1.76-2.64-4.3-2.64-7.62v-31.98h19.46c1.11,0,2.06-.4,2.87-1.21,.8-.8,1.21-1.76,1.21-2.87v-9.96c0-1.11-.4-2.06-1.21-2.87-.81-.8-1.76-1.21-2.87-1.21h-19.46V4.07c0-1.11-.4-2.06-1.21-2.87-.81-.8-1.76-1.21-2.87-1.21h-11.46c-1.11,0-2.06,.4-2.87,1.21-.8,.81-1.21,1.76-1.21,2.87V28.66h-19.6c-4.63,0-8.45,.6-11.46,1.81-3.02,1.21-5.88,3.12-8.6,5.73v-3.47c0-1.11-.4-2.06-1.21-2.87-.81-.8-1.76-1.21-2.86-1.21h-11.46c-1.11,0-2.06,.4-2.87,1.21-.81,.81-1.21,1.76-1.21,2.87V103.02c0,1.11,.4,2.06,1.21,2.87,.8,.8,1.76,1.21,2.87,1.21Z"/><path class="cls-1" d="M227.01,105.51c4.98,2.06,10.83,3.09,17.57,3.09s12.65-1.13,17.72-3.39c5.08-2.26,8.98-5.23,11.69-8.9,2.72-3.67,4.07-7.57,4.07-11.69,0-6.23-1.91-11.36-5.73-15.38-3.82-4.02-10.06-6.94-18.7-8.75-6.84-1.51-11.57-2.59-14.18-3.24-2.61-.65-4.45-1.41-5.5-2.26-1.06-.85-1.58-2.04-1.58-3.55,0-2.11,1.08-3.67,3.24-4.68,2.16-1,4.9-1.51,8.22-1.51,3.11,0,5.45,.3,7.01,.91,1.56,.6,2.94,1.41,4.15,2.41,.8,.7,1.56,1.23,2.26,1.58,.7,.35,1.66,.53,2.87,.53h11.61c1.11,0,2.08-.4,2.94-1.21,.85-.8,1.23-1.76,1.13-2.87-.2-3.32-1.64-6.49-4.3-9.5-2.67-3.02-6.39-5.43-11.16-7.24-4.78-1.81-10.28-2.71-16.51-2.71s-11.72,1.16-16.44,3.47c-4.73,2.31-8.35,5.33-10.86,9.05-2.51,3.72-3.77,7.64-3.77,11.76,0,6.44,1.68,11.61,5.05,15.54,3.37,3.92,9.28,6.84,17.72,8.75l5.88,1.21c5.13,1.11,8.75,1.96,10.86,2.56,2.11,.6,3.67,1.28,4.67,2.03,1,.76,1.51,1.79,1.51,3.09,0,2.01-1.41,3.5-4.22,4.45-2.82,.96-6.03,1.43-9.65,1.43s-6.28-.4-7.99-1.21c-1.71-.8-3.27-1.91-4.68-3.32-.81-.8-1.56-1.41-2.26-1.81-.7-.4-1.61-.6-2.72-.6h-11.61c-1.11,0-2.09,.4-2.94,1.21-.86,.8-1.23,1.76-1.13,2.87,.2,3.42,1.63,6.74,4.3,9.96,2.66,3.22,6.49,5.86,11.46,7.92Z"/><path class="cls-1" d="M3.21,147.91l277.88-15.13c1.39-.08,2.45-1.26,2.38-2.65l-.55-10.13c-.08-1.39-1.26-2.45-2.65-2.38L2.38,132.75c-1.39,.08-2.45,1.26-2.38,2.65l.55,10.13c.08,1.39,1.26,2.45,2.65,2.38Z"/></svg>